<?xml version="1.0"?>
<svg xmlns="http://www.w3.org/2000/svg" id="Layer_1" data-name="Layer 1" viewBox="0 0 512 512" width="100" height="100">
    <path d="M424.988,399.709c-6.008,4.675-14.666,3.774-20.047-1.607l-47.5-47.5L340.726,367.32a18.469,18.469,0,0,1-26.12-26.119l16.717-16.717-54.068-54.068L176.42,374.177l46.414,77.941a17.874,17.874,0,0,1,1.92,4.192c1.789,6.256.092,13.1-5.916,19.107L36,292.579c6.674-6.674,14.836-8.123,21.745-4.924L137.24,335,241.484,234.645,186.75,179.912l-16.717,16.716a18.469,18.469,0,0,1-26.119-26.12l16.716-16.716-47.316-47.316c-5.38-5.381-6.281-14.039-1.606-20.047a14.91,14.91,0,0,1,17.174-4.793l195.314,72.6,114.609-111.5a21.954,21.954,0,0,1,30.978,31.108L357.747,188.226l72.034,194.309a14.91,14.91,0,0,1-4.793,17.174Z"
          style="fill:#50a6ea"/>
    <path d="M438.805,42.731,324.2,154.232l-195.314-72.6a14.91,14.91,0,0,0-17.174,4.793c-4.675,6.008-3.774,14.666,1.606,20.047l47.316,47.316-16.716,16.716a18.469,18.469,0,0,0,26.119,26.12l16.717-16.717,54.734,54.734L137.24,335,57.745,287.655c-6.909-3.2-15.071-1.75-21.745,4.924l88.7,84.7L469.6,43.044A21.959,21.959,0,0,0,438.805,42.731Z"
          style="fill:#72bcef"/>
    <path d="M434.622,38.43,322.731,147.286l-191.7-71.251a20.931,20.931,0,0,0-21.961,34.684l43.073,43.073-12.474,12.474a24.469,24.469,0,0,0,34.605,34.605L186.75,188.4l46.167,46.167L136.377,327.5l-75.563-45a6.081,6.081,0,0,0-.548-.289c-9.436-4.372-20.36-2.024-28.509,6.125a6,6,0,0,0,0,8.485L214.6,479.66a6,6,0,0,0,8.486,0c7.211-7.212,9.923-16.324,7.432-25.032a23.576,23.576,0,0,0-2.524-5.58l-44.061-73.989,93.388-96.1,45.521,45.522-12.474,12.474a24.47,24.47,0,0,0,34.606,34.6l12.473-12.474L400.7,402.345a21.228,21.228,0,0,0,27.975,2.1l.014-.011a20.9,20.9,0,0,0,6.719-23.983L364.7,189.708l109.4-111.692A27.954,27.954,0,0,0,434.622,38.43ZM465.5,69.641,353.46,184.028a6,6,0,0,0-1.339,6.284l72.058,194.374a8.907,8.907,0,0,1-2.886,10.3c-3.471,2.69-8.787,2.2-12.109-1.122l-47.5-47.5a6,6,0,0,0-8.485,0l-16.717,16.717a12.469,12.469,0,0,1-17.634-17.635l16.716-16.716a6,6,0,0,0,0-8.486L281.5,266.173a5.926,5.926,0,0,0-4.285-1.757,6,6,0,0,0-4.26,1.818L172.117,370a6,6,0,0,0-.852,7.252l47.72,80.713a11.437,11.437,0,0,1-.8,8.318L45.168,293.262a11.559,11.559,0,0,1,9.8-.277l79.2,47.167a6,6,0,0,0,7.231-.832L245.645,238.968a6,6,0,0,0,.082-8.565l-54.734-54.734a6,6,0,0,0-8.486,0l-16.716,16.716a12.469,12.469,0,1,1-17.635-17.634l16.717-16.716a6,6,0,0,0,0-8.486l-47.316-47.316c-3.326-3.325-3.815-8.649-1.124-12.106a8.957,8.957,0,0,1,5.2-3.3,9.107,9.107,0,0,1,5.154.428l195.314,72.6a6,6,0,0,0,6.274-1.323L442.969,47.051A15.954,15.954,0,0,1,465.5,69.641Z"
          style="fill:#284268"/>
</svg>
